<svg xmlns="http://www.w3.org/2000/svg" viewBox="0 0 64 64" role="img" aria-label="NonogramArena">
  <rect width="64" height="64" rx="10" fill="#0f1f3d"/>
  <rect x="6" y="6" width="52" height="52" rx="6" fill="#ffffff"/>
  <g stroke="#0f1f3d" stroke-width="1">
    <path d="M6 16h52M6 26h52M6 36h52M6 46h52"/>
    <path d="M16 6v52M26 6v52M36 6v52M46 6v52"/>
  </g>
  <rect x="6" y="6" width="10" height="10" fill="#0f1f3d"/>
  <rect x="16" y="6" width="10" height="10" fill="#f45b9a"/>
  <rect x="26" y="6" width="10" height="10" fill="#4db7ff"/>
  <rect x="46" y="6" width="12" height="10" fill="#0f1f3d"/>

  <rect x="6" y="16" width="10" height="10" fill="#4db7ff"/>
  <rect x="26" y="16" width="10" height="10" fill="#0f1f3d"/>
  <rect x="36" y="16" width="10" height="10" fill="#f45b9a"/>

  <rect x="16" y="26" width="10" height="10" fill="#0f1f3d"/>
  <rect x="36" y="26" width="10" height="10" fill="#4db7ff"/>
  <rect x="46" y="26" width="12" height="10" fill="#f45b9a"/>

  <rect x="6" y="36" width="10" height="10" fill="#f45b9a"/>
  <rect x="26" y="36" width="10" height="10" fill="#4db7ff"/>
  <rect x="46" y="36" width="12" height="10" fill="#0f1f3d"/>

  <rect x="16" y="46" width="10" height="12" fill="#4db7ff"/>
  <rect x="36" y="46" width="10" height="12" fill="#0f1f3d"/>
  <rect x="46" y="46" width="12" height="12" fill="#f45b9a"/>
</svg>
